<?xml version="1.0" encoding="UTF-8"?>
<svg xmlns="http://www.w3.org/2000/svg" version="1.1" width="200" height="200" viewBox="0 0 200 200"><rect x="0" y="0" width="200" height="200" fill="#ffffff"/><g transform="scale(9.524)"><g transform="translate(0,0)"><path fill-rule="evenodd" d="M8 0L8 2L9 2L9 4L8 4L8 10L9 10L9 11L8 11L8 12L5 12L5 13L8 13L8 14L9 14L9 15L8 15L8 16L9 16L9 18L8 18L8 21L11 21L11 19L10 19L10 20L9 20L9 18L11 18L11 17L13 17L13 16L14 16L14 17L15 17L15 18L13 18L13 19L12 19L12 20L13 20L13 21L21 21L21 18L19 18L19 19L20 19L20 20L13 20L13 19L17 19L17 18L18 18L18 17L19 17L19 16L20 16L20 17L21 17L21 14L20 14L20 13L18 13L18 11L19 11L19 12L21 12L21 10L18 10L18 11L17 11L17 10L14 10L14 11L16 11L16 12L13 12L13 11L12 11L12 12L13 12L13 13L15 13L15 14L16 14L16 15L18 15L18 14L19 14L19 16L18 16L18 17L17 17L17 16L15 16L15 15L14 15L14 14L12 14L12 13L11 13L11 12L10 12L10 10L9 10L9 9L17 9L17 8L12 8L12 7L13 7L13 6L12 6L12 7L11 7L11 5L10 5L10 7L9 7L9 4L10 4L10 3L11 3L11 4L12 4L12 5L13 5L13 3L12 3L12 2L13 2L13 0ZM10 1L10 2L11 2L11 1ZM0 8L0 9L3 9L3 10L1 10L1 12L2 12L2 13L4 13L4 12L2 12L2 11L5 11L5 10L6 10L6 11L7 11L7 10L6 10L6 9L7 9L7 8L5 8L5 9L3 9L3 8ZM19 8L19 9L21 9L21 8ZM16 12L16 14L18 14L18 13L17 13L17 12ZM10 14L10 16L11 16L11 14ZM12 15L12 16L13 16L13 15ZM16 17L16 18L17 18L17 17ZM0 0L0 7L7 7L7 0ZM1 1L1 6L6 6L6 1ZM2 2L2 5L5 5L5 2ZM14 0L14 7L21 7L21 0ZM15 1L15 6L20 6L20 1ZM16 2L16 5L19 5L19 2ZM0 14L0 21L7 21L7 14ZM1 15L1 20L6 20L6 15ZM2 16L2 19L5 19L5 16Z" fill="#000000"/></g></g></svg>
