<?xml version="1.0" encoding="UTF-8"?>
<svg xmlns="http://www.w3.org/2000/svg" version="1.1" width="200" height="200" viewBox="0 0 200 200"><rect x="0" y="0" width="200" height="200" fill="#ffffff"/><g transform="scale(9.524)"><g transform="translate(0,0)"><path fill-rule="evenodd" d="M9 0L9 3L8 3L8 5L9 5L9 4L10 4L10 7L9 7L9 6L8 6L8 7L9 7L9 9L8 9L8 8L5 8L5 9L4 9L4 10L3 10L3 9L2 9L2 8L0 8L0 10L1 10L1 11L0 11L0 12L2 12L2 13L4 13L4 11L5 11L5 13L8 13L8 16L9 16L9 17L10 17L10 18L9 18L9 19L8 19L8 21L12 21L12 20L11 20L11 19L10 19L10 18L11 18L11 17L10 17L10 16L12 16L12 18L13 18L13 19L17 19L17 18L19 18L19 19L18 19L18 21L19 21L19 19L20 19L20 20L21 20L21 18L19 18L19 17L20 17L20 15L18 15L18 16L17 16L17 15L16 15L16 16L15 16L15 15L14 15L14 14L13 14L13 13L15 13L15 14L16 14L16 12L17 12L17 13L18 13L18 12L21 12L21 11L19 11L19 9L18 9L18 8L16 8L16 10L15 10L15 9L13 9L13 4L12 4L12 3L10 3L10 1L11 1L11 2L12 2L12 1L13 1L13 0ZM11 5L11 7L12 7L12 5ZM10 8L10 9L9 9L9 10L8 10L8 9L5 9L5 11L6 11L6 12L9 12L9 13L10 13L10 12L11 12L11 13L13 13L13 10L12 10L12 8ZM1 9L1 10L2 10L2 9ZM10 9L10 11L9 11L9 12L10 12L10 11L12 11L12 10L11 10L11 9ZM17 9L17 10L16 10L16 11L15 11L15 10L14 10L14 11L15 11L15 12L16 12L16 11L17 11L17 10L18 10L18 9ZM20 9L20 10L21 10L21 9ZM6 10L6 11L8 11L8 10ZM19 13L19 14L20 14L20 13ZM9 14L9 15L12 15L12 14ZM13 16L13 17L14 17L14 16ZM16 16L16 18L17 18L17 16ZM9 19L9 20L10 20L10 19ZM15 20L15 21L16 21L16 20ZM0 0L0 7L7 7L7 0ZM1 1L1 6L6 6L6 1ZM2 2L2 5L5 5L5 2ZM14 0L14 7L21 7L21 0ZM15 1L15 6L20 6L20 1ZM16 2L16 5L19 5L19 2ZM0 14L0 21L7 21L7 14ZM1 15L1 20L6 20L6 15ZM2 16L2 19L5 19L5 16Z" fill="#000000"/></g></g></svg>
