<?xml version="1.0" encoding="UTF-8"?>
<svg xmlns="http://www.w3.org/2000/svg" version="1.1" width="200" height="200" viewBox="0 0 200 200"><rect x="0" y="0" width="200" height="200" fill="#ffffff"/><g transform="scale(9.524)"><g transform="translate(0,0)"><path fill-rule="evenodd" d="M10 0L10 3L12 3L12 4L8 4L8 8L6 8L6 9L8 9L8 10L4 10L4 11L8 11L8 10L9 10L9 9L8 9L8 8L9 8L9 6L10 6L10 7L11 7L11 5L13 5L13 3L12 3L12 2L13 2L13 0L12 0L12 2L11 2L11 0ZM8 1L8 3L9 3L9 1ZM12 6L12 7L13 7L13 6ZM0 8L0 10L1 10L1 9L2 9L2 10L3 10L3 9L4 9L4 8L3 8L3 9L2 9L2 8ZM10 8L10 10L11 10L11 11L10 11L10 12L9 12L9 13L8 13L8 12L6 12L6 13L8 13L8 15L9 15L9 14L10 14L10 16L9 16L9 17L8 17L8 18L9 18L9 19L8 19L8 21L9 21L9 20L10 20L10 21L11 21L11 20L13 20L13 19L12 19L12 18L11 18L11 15L14 15L14 14L10 14L10 13L12 13L12 12L14 12L14 13L15 13L15 12L18 12L18 11L21 11L21 10L20 10L20 8L18 8L18 9L17 9L17 8L14 8L14 9L13 9L13 8ZM12 9L12 11L11 11L11 12L12 12L12 11L13 11L13 9ZM14 9L14 10L15 10L15 11L17 11L17 9L16 9L16 10L15 10L15 9ZM18 9L18 10L19 10L19 9ZM2 11L2 12L1 12L1 13L4 13L4 12L3 12L3 11ZM19 12L19 13L16 13L16 14L15 14L15 16L16 16L16 15L17 15L17 18L16 18L16 19L15 19L15 17L14 17L14 19L15 19L15 20L16 20L16 21L19 21L19 20L18 20L18 17L19 17L19 18L20 18L20 20L21 20L21 15L20 15L20 17L19 17L19 16L18 16L18 14L20 14L20 12ZM12 16L12 17L13 17L13 16ZM9 17L9 18L10 18L10 17ZM0 0L0 7L7 7L7 0ZM1 1L1 6L6 6L6 1ZM2 2L2 5L5 5L5 2ZM14 0L14 7L21 7L21 0ZM15 1L15 6L20 6L20 1ZM16 2L16 5L19 5L19 2ZM0 14L0 21L7 21L7 14ZM1 15L1 20L6 20L6 15ZM2 16L2 19L5 19L5 16Z" fill="#000000"/></g></g></svg>
