<?xml version="1.0" encoding="UTF-8"?>
<svg xmlns="http://www.w3.org/2000/svg" version="1.1" width="200" height="200" viewBox="0 0 200 200"><rect x="0" y="0" width="200" height="200" fill="#ffffff"/><g transform="scale(9.524)"><g transform="translate(0,0)"><path fill-rule="evenodd" d="M8 0L8 4L9 4L9 5L8 5L8 7L9 7L9 5L10 5L10 7L11 7L11 5L12 5L12 7L13 7L13 2L12 2L12 1L13 1L13 0L12 0L12 1L11 1L11 2L10 2L10 1L9 1L9 0ZM9 3L9 4L10 4L10 3ZM11 3L11 4L12 4L12 3ZM0 8L0 9L2 9L2 8ZM4 8L4 10L2 10L2 11L1 11L1 10L0 10L0 11L1 11L1 12L2 12L2 13L3 13L3 11L5 11L5 12L4 12L4 13L7 13L7 12L6 12L6 11L8 11L8 12L9 12L9 13L8 13L8 14L10 14L10 16L11 16L11 15L12 15L12 14L13 14L13 15L14 15L14 16L12 16L12 19L10 19L10 18L11 18L11 17L9 17L9 15L8 15L8 17L9 17L9 19L8 19L8 21L9 21L9 20L11 20L11 21L12 21L12 20L13 20L13 21L15 21L15 20L18 20L18 21L21 21L21 19L20 19L20 20L18 20L18 19L19 19L19 18L21 18L21 15L19 15L19 14L16 14L16 13L17 13L17 12L16 12L16 11L17 11L17 10L15 10L15 9L16 9L16 8L15 8L15 9L13 9L13 8L12 8L12 11L10 11L10 12L9 12L9 9L8 9L8 10L6 10L6 9L7 9L7 8ZM17 8L17 9L18 9L18 10L21 10L21 8ZM5 10L5 11L6 11L6 10ZM13 10L13 11L15 11L15 10ZM19 11L19 12L21 12L21 11ZM10 12L10 14L11 14L11 12ZM12 12L12 13L13 13L13 12ZM14 12L14 13L16 13L16 12ZM20 13L20 14L21 14L21 13ZM15 14L15 15L16 15L16 14ZM18 15L18 16L19 16L19 17L20 17L20 16L19 16L19 15ZM15 16L15 17L14 17L14 18L13 18L13 20L15 20L15 17L16 17L16 18L17 18L17 19L18 19L18 18L17 18L17 16ZM0 0L0 7L7 7L7 0ZM1 1L1 6L6 6L6 1ZM2 2L2 5L5 5L5 2ZM14 0L14 7L21 7L21 0ZM15 1L15 6L20 6L20 1ZM16 2L16 5L19 5L19 2ZM0 14L0 21L7 21L7 14ZM1 15L1 20L6 20L6 15ZM2 16L2 19L5 19L5 16Z" fill="#000000"/></g></g></svg>
