<?xml version="1.0" encoding="UTF-8"?>
<svg xmlns="http://www.w3.org/2000/svg" version="1.1" width="200" height="200" viewBox="0 0 200 200"><rect x="0" y="0" width="200" height="200" fill="#ffffff"/><g transform="scale(9.524)"><g transform="translate(0,0)"><path fill-rule="evenodd" d="M8 0L8 4L9 4L9 5L8 5L8 7L9 7L9 5L10 5L10 7L11 7L11 5L12 5L12 7L13 7L13 2L12 2L12 1L13 1L13 0L12 0L12 1L11 1L11 2L10 2L10 1L9 1L9 0ZM9 3L9 4L10 4L10 3ZM11 3L11 4L12 4L12 3ZM0 8L0 10L1 10L1 9L2 9L2 13L4 13L4 12L6 12L6 13L8 13L8 14L10 14L10 15L8 15L8 17L9 17L9 18L10 18L10 19L11 19L11 21L12 21L12 20L13 20L13 21L15 21L15 20L17 20L17 18L16 18L16 17L15 17L15 16L18 16L18 17L19 17L19 18L18 18L18 21L21 21L21 19L20 19L20 20L19 20L19 18L21 18L21 15L19 15L19 12L21 12L21 11L19 11L19 9L20 9L20 10L21 10L21 8L17 8L17 9L18 9L18 10L15 10L15 9L16 9L16 8L15 8L15 9L13 9L13 8L12 8L12 11L11 11L11 9L9 9L9 10L8 10L8 9L7 9L7 8L4 8L4 9L2 9L2 8ZM4 9L4 11L6 11L6 12L9 12L9 13L10 13L10 14L11 14L11 12L10 12L10 11L6 11L6 10L7 10L7 9ZM13 10L13 12L12 12L12 13L13 13L13 12L14 12L14 13L16 13L16 14L12 14L12 15L10 15L10 16L9 16L9 17L11 17L11 19L12 19L12 16L13 16L13 20L15 20L15 17L14 17L14 16L15 16L15 15L16 15L16 14L18 14L18 13L16 13L16 12L18 12L18 11L16 11L16 12L14 12L14 11L15 11L15 10ZM0 11L0 12L1 12L1 11ZM20 13L20 14L21 14L21 13ZM18 15L18 16L19 16L19 17L20 17L20 16L19 16L19 15ZM8 19L8 21L9 21L9 19ZM0 0L0 7L7 7L7 0ZM1 1L1 6L6 6L6 1ZM2 2L2 5L5 5L5 2ZM14 0L14 7L21 7L21 0ZM15 1L15 6L20 6L20 1ZM16 2L16 5L19 5L19 2ZM0 14L0 21L7 21L7 14ZM1 15L1 20L6 20L6 15ZM2 16L2 19L5 19L5 16Z" fill="#000000"/></g></g></svg>
